<svg data-v-423bf9ae="" xmlns="http://www.w3.org/2000/svg" viewBox="0 0 1472.379401916277 193" class="fontAboveSlogan"><!----><!----><!----><g data-v-423bf9ae="" id="40f9875e-6124-4996-8f33-14f12943abbb" fill="white" transform="matrix(9.345794281459888,0,0,9.345794281459888,74.7067652800605,-26.28626016802491)"><path d="M1.43 13.09L1.43 13.09Q1.29 13.09 1.19 12.99L1.19 12.99L1.19 12.99Q1.09 12.89 1.09 12.75L1.09 12.75L1.09 3.63L1.09 3.63Q1.09 3.47 1.19 3.38L1.19 3.38L1.19 3.38Q1.29 3.29 1.43 3.29L1.43 3.29L2.74 3.29L2.74 3.29Q2.90 3.29 2.99 3.38L2.99 3.38L2.99 3.38Q3.08 3.47 3.08 3.63L3.08 3.63L3.08 11.41L7.52 11.41L7.52 11.41Q7.67 11.41 7.77 11.51L7.77 11.51L7.77 11.51Q7.87 11.61 7.87 11.75L7.87 11.75L7.87 12.75L7.87 12.75Q7.87 12.89 7.77 12.99L7.77 12.99L7.77 12.99Q7.67 13.09 7.52 13.09L7.52 13.09L1.43 13.09ZM11.76 13.23L11.76 13.23Q10.47 13.23 9.73 12.39L9.73 12.39L9.73 12.39Q8.99 11.55 8.99 10.08L8.99 10.08L8.99 6.15L8.99 6.15Q8.99 5.99 9.09 5.90L9.09 5.90L9.09 5.90Q9.18 5.81 9.32 5.81L9.32 5.81L10.58 5.81L10.58 5.81Q10.72 5.81 10.82 5.91L10.82 5.91L10.82 5.91Q10.92 6.01 10.92 6.15L10.92 6.15L10.92 10.00L10.92 10.00Q10.92 11.72 12.42 11.72L12.42 11.72L12.42 11.72Q13.15 11.72 13.57 11.26L13.57 11.26L13.57 11.26Q14 10.79 14 10.00L14 10.00L14 6.15L14 6.15Q14 5.99 14.10 5.90L14.10 5.90L14.10 5.90Q14.20 5.81 14.34 5.81L14.34 5.81L15.58 5.81L15.58 5.81Q15.74 5.81 15.83 5.90L15.83 5.90L15.83 5.90Q15.92 5.99 15.92 6.15L15.92 6.15L15.92 12.75L15.92 12.75Q15.92 12.89 15.83 12.99L15.83 12.99L15.83 12.99Q15.74 13.09 15.58 13.09L15.58 13.09L14.42 13.09L14.42 13.09Q14.28 13.09 14.18 12.99L14.18 12.99L14.18 12.99Q14.08 12.89 14.08 12.75L14.08 12.75L14.08 12.18L14.08 12.18Q13.31 13.23 11.76 13.23L11.76 13.23ZM20.92 13.23L20.92 13.23Q19.38 13.23 18.46 12.38L18.46 12.38L18.46 12.38Q17.54 11.52 17.49 10.01L17.49 10.01L17.47 9.45L17.49 8.89L17.49 8.89Q17.54 7.38 18.46 6.52L18.46 6.52L18.46 6.52Q19.38 5.67 20.92 5.67L20.92 5.67L20.92 5.67Q22.02 5.67 22.79 6.06L22.79 6.06L22.79 6.06Q23.55 6.45 23.92 7.02L23.92 7.02L23.92 7.02Q24.29 7.59 24.32 8.11L24.32 8.11L24.32 8.11Q24.33 8.25 24.23 8.34L24.23 8.34L24.23 8.34Q24.12 8.44 23.98 8.44L23.98 8.44L22.74 8.44L22.74 8.44Q22.58 8.44 22.51 8.38L22.51 8.38L22.51 8.38Q22.44 8.32 22.37 8.15L22.37 8.15L22.37 8.15Q22.16 7.62 21.82 7.38L21.82 7.38L21.82 7.38Q21.48 7.14 20.94 7.14L20.94 7.14L20.94 7.14Q20.23 7.14 19.83 7.59L19.83 7.59L19.83 7.59Q19.43 8.04 19.40 8.96L19.40 8.96L19.39 9.48L19.40 9.94L19.40 9.94Q19.49 11.76 20.94 11.76L20.94 11.76L20.94 11.76Q21.49 11.76 21.83 11.53L21.83 11.53L21.83 11.53Q22.16 11.30 22.37 10.75L22.37 10.75L22.37 10.75Q22.43 10.60 22.50 10.53L22.50 10.53L22.50 10.53Q22.58 10.46 22.74 10.46L22.74 10.46L23.98 10.46L23.98 10.46Q24.12 10.46 24.23 10.56L24.23 10.56L24.23 10.56Q24.33 10.65 24.32 10.79L24.32 10.79L24.32 10.79Q24.29 11.28 23.93 11.85L23.93 11.85L23.93 11.85Q23.56 12.42 22.81 12.82L22.81 12.82L22.81 12.82Q22.05 13.23 20.92 13.23L20.92 13.23ZM26.12 13.09L26.12 13.09Q25.98 13.09 25.89 12.99L25.89 12.99L25.89 12.99Q25.79 12.89 25.79 12.75L25.79 12.75L25.79 3.49L25.79 3.49Q25.79 3.33 25.89 3.24L25.89 3.24L25.89 3.24Q25.98 3.15 26.12 3.15L26.12 3.15L27.29 3.15L27.29 3.15Q27.43 3.15 27.52 3.25L27.52 3.25L27.52 3.25Q27.62 3.35 27.62 3.49L27.62 3.49L27.62 8.27L29.95 6.05L29.95 6.05Q29.99 6.02 30.08 5.94L30.08 5.94L30.08 5.94Q30.17 5.87 30.25 5.84L30.25 5.84L30.25 5.84Q30.34 5.81 30.46 5.81L30.46 5.81L31.79 5.81L31.79 5.81Q31.93 5.81 32.02 5.89L32.02 5.89L32.02 5.89Q32.10 5.98 32.10 6.12L32.10 6.12L32.10 6.12Q32.10 6.24 31.96 6.37L31.96 6.37L29.11 9.07L32.31 12.54L32.31 12.54Q32.44 12.67 32.44 12.78L32.44 12.78L32.44 12.78Q32.44 12.92 32.35 13.01L32.35 13.01L32.35 13.01Q32.27 13.09 32.14 13.09L32.14 13.09L30.79 13.09L30.79 13.09Q30.59 13.09 30.50 13.04L30.50 13.04L30.50 13.04Q30.41 12.99 30.27 12.85L30.27 12.85L27.62 10.04L27.62 12.75L27.62 12.75Q27.62 12.89 27.52 12.99L27.52 12.99L27.52 12.99Q27.43 13.09 27.29 13.09L27.29 13.09L26.12 13.09ZM34.82 15.75L34.82 15.75Q34.71 15.75 34.62 15.67L34.62 15.67L34.62 15.67Q34.52 15.58 34.52 15.47L34.52 15.47L34.52 15.47Q34.52 15.37 34.58 15.25L34.58 15.25L35.69 12.66L33.00 6.31L33.00 6.31Q32.94 6.19 32.94 6.12L32.94 6.12L32.94 6.12Q32.96 5.99 33.04 5.90L33.04 5.90L33.04 5.90Q33.12 5.81 33.25 5.81L33.25 5.81L34.41 5.81L34.41 5.81Q34.66 5.81 34.78 6.08L34.78 6.08L36.64 10.64L38.53 6.08L38.53 6.08Q38.67 5.81 38.92 5.81L38.92 5.81L40.05 5.81L40.05 5.81Q40.18 5.81 40.26 5.89L40.26 5.89L40.26 5.89Q40.35 5.98 40.35 6.09L40.35 6.09L40.35 6.09Q40.35 6.19 40.29 6.31L40.29 6.31L36.33 15.48L36.33 15.48Q36.22 15.75 35.94 15.75L35.94 15.75L34.82 15.75ZM45.25 13.09L45.25 13.09Q45.11 13.09 45.01 12.99L45.01 12.99L45.01 12.99Q44.91 12.89 44.91 12.75L44.91 12.75L44.91 3.64L44.91 3.64Q44.91 3.49 45.00 3.39L45.00 3.39L45.00 3.39Q45.09 3.29 45.25 3.29L45.25 3.29L48.66 3.29L48.66 3.29Q52.79 3.29 52.88 7.10L52.88 7.10L52.88 7.10Q52.91 7.91 52.91 8.19L52.91 8.19L52.91 8.19Q52.91 8.46 52.88 9.27L52.88 9.27L52.88 9.27Q52.82 11.23 51.82 12.16L51.82 12.16L51.82 12.16Q50.82 13.09 48.73 13.09L48.73 13.09L45.25 13.09ZM46.89 11.47L48.66 11.47L48.66 11.47Q49.83 11.47 50.34 10.95L50.34 10.95L50.34 10.95Q50.86 10.43 50.89 9.23L50.89 9.23L50.89 9.23Q50.92 8.39 50.92 8.18L50.92 8.18L50.92 8.18Q50.92 7.95 50.89 7.14L50.89 7.14L50.89 7.14Q50.86 5.99 50.32 5.45L50.32 5.45L50.32 5.45Q49.77 4.91 48.59 4.91L48.59 4.91L46.89 4.91L46.89 11.47ZM57.29 13.23L57.29 13.23Q56 13.23 55.26 12.39L55.26 12.39L55.26 12.39Q54.52 11.55 54.52 10.08L54.52 10.08L54.52 6.15L54.52 6.15Q54.52 5.99 54.61 5.90L54.61 5.90L54.61 5.90Q54.71 5.81 54.85 5.81L54.85 5.81L56.11 5.81L56.11 5.81Q56.25 5.81 56.35 5.91L56.35 5.91L56.35 5.91Q56.45 6.01 56.45 6.15L56.45 6.15L56.45 10.00L56.45 10.00Q56.45 11.72 57.95 11.72L57.95 11.72L57.95 11.72Q58.67 11.72 59.10 11.26L59.10 11.26L59.10 11.26Q59.53 10.79 59.53 10.00L59.53 10.00L59.53 6.15L59.53 6.15Q59.53 5.99 59.63 5.90L59.63 5.90L59.63 5.90Q59.72 5.81 59.86 5.81L59.86 5.81L61.11 5.81L61.11 5.81Q61.26 5.81 61.35 5.90L61.35 5.90L61.35 5.90Q61.45 5.99 61.45 6.15L61.45 6.15L61.45 12.75L61.45 12.75Q61.45 12.89 61.35 12.99L61.35 12.99L61.35 12.99Q61.26 13.09 61.11 13.09L61.11 13.09L59.95 13.09L59.95 13.09Q59.81 13.09 59.71 12.99L59.71 12.99L59.71 12.99Q59.61 12.89 59.61 12.75L59.61 12.75L59.61 12.18L59.61 12.18Q58.84 13.23 57.29 13.23L57.29 13.23ZM66.44 13.23L66.44 13.23Q64.90 13.23 63.99 12.38L63.99 12.38L63.99 12.38Q63.07 11.52 63.01 10.01L63.01 10.01L63 9.45L63.01 8.89L63.01 8.89Q63.07 7.38 63.99 6.52L63.99 6.52L63.99 6.52Q64.90 5.67 66.44 5.67L66.44 5.67L66.44 5.67Q67.55 5.67 68.31 6.06L68.31 6.06L68.31 6.06Q69.08 6.45 69.45 7.02L69.45 7.02L69.45 7.02Q69.82 7.59 69.85 8.11L69.85 8.11L69.85 8.11Q69.86 8.25 69.75 8.34L69.75 8.34L69.75 8.34Q69.65 8.44 69.51 8.44L69.51 8.44L68.26 8.44L68.26 8.44Q68.11 8.44 68.04 8.38L68.04 8.38L68.04 8.38Q67.97 8.32 67.90 8.15L67.90 8.15L67.90 8.15Q67.69 7.62 67.35 7.38L67.35 7.38L67.35 7.38Q67.00 7.14 66.47 7.14L66.47 7.14L66.47 7.14Q65.76 7.14 65.36 7.59L65.36 7.59L65.36 7.59Q64.96 8.04 64.93 8.96L64.93 8.96L64.92 9.48L64.93 9.94L64.93 9.94Q65.02 11.76 66.47 11.76L66.47 11.76L66.47 11.76Q67.02 11.76 67.35 11.53L67.35 11.53L67.35 11.53Q67.69 11.30 67.90 10.75L67.90 10.75L67.90 10.75Q67.96 10.60 68.03 10.53L68.03 10.53L68.03 10.53Q68.11 10.46 68.26 10.46L68.26 10.46L69.51 10.46L69.51 10.46Q69.65 10.46 69.75 10.56L69.75 10.56L69.75 10.56Q69.86 10.65 69.85 10.79L69.85 10.79L69.85 10.79Q69.82 11.28 69.45 11.85L69.45 11.85L69.45 11.85Q69.09 12.42 68.33 12.82L68.33 12.82L68.33 12.82Q67.58 13.23 66.44 13.23L66.44 13.23ZM71.65 13.09L71.65 13.09Q71.51 13.09 71.41 12.99L71.41 12.99L71.41 12.99Q71.32 12.89 71.32 12.75L71.32 12.75L71.32 3.49L71.32 3.49Q71.32 3.33 71.41 3.24L71.41 3.24L71.41 3.24Q71.51 3.15 71.65 3.15L71.65 3.15L72.81 3.15L72.81 3.15Q72.95 3.15 73.05 3.25L73.05 3.25L73.05 3.25Q73.15 3.35 73.15 3.49L73.15 3.49L73.15 8.27L75.47 6.05L75.47 6.05Q75.52 6.02 75.61 5.94L75.61 5.94L75.61 5.94Q75.70 5.87 75.78 5.84L75.78 5.84L75.78 5.84Q75.87 5.81 75.99 5.81L75.99 5.81L77.32 5.81L77.32 5.81Q77.46 5.81 77.55 5.89L77.55 5.89L77.55 5.89Q77.63 5.98 77.63 6.12L77.63 6.12L77.63 6.12Q77.63 6.24 77.49 6.37L77.49 6.37L74.63 9.07L77.84 12.54L77.84 12.54Q77.97 12.67 77.97 12.78L77.97 12.78L77.97 12.78Q77.97 12.92 77.88 13.01L77.88 13.01L77.88 13.01Q77.80 13.09 77.67 13.09L77.67 13.09L76.31 13.09L76.31 13.09Q76.12 13.09 76.03 13.04L76.03 13.04L76.03 13.04Q75.94 12.99 75.80 12.85L75.80 12.85L73.15 10.04L73.15 12.75L73.15 12.75Q73.15 12.89 73.05 12.99L73.05 12.99L73.05 12.99Q72.95 13.09 72.81 13.09L72.81 13.09L71.65 13.09ZM80.35 15.75L80.35 15.75Q80.23 15.75 80.14 15.67L80.14 15.67L80.14 15.67Q80.05 15.58 80.05 15.47L80.05 15.47L80.05 15.47Q80.05 15.37 80.11 15.25L80.11 15.25L81.21 12.66L78.53 6.31L78.53 6.31Q78.47 6.19 78.47 6.12L78.47 6.12L78.47 6.12Q78.48 5.99 78.57 5.90L78.57 5.90L78.57 5.90Q78.65 5.81 78.78 5.81L78.78 5.81L79.94 5.81L79.94 5.81Q80.19 5.81 80.30 6.08L80.30 6.08L82.17 10.64L84.06 6.08L84.06 6.08Q84.20 5.81 84.45 5.81L84.45 5.81L85.58 5.81L85.58 5.81Q85.71 5.81 85.79 5.89L85.79 5.89L85.79 5.89Q85.88 5.98 85.88 6.09L85.88 6.09L85.88 6.09Q85.88 6.19 85.82 6.31L85.82 6.31L81.86 15.48L81.86 15.48Q81.75 15.75 81.47 15.75L81.47 15.75L80.35 15.75ZM93.86 13.23L93.86 13.23Q92.60 13.23 91.70 12.85L91.70 12.85L91.70 12.85Q90.80 12.47 90.34 11.86L90.34 11.86L90.34 11.86Q89.88 11.24 89.85 10.51L89.85 10.51L89.85 10.51Q89.85 10.40 89.94 10.31L89.94 10.31L89.94 10.31Q90.02 10.22 90.15 10.22L90.15 10.22L91.42 10.22L91.42 10.22Q91.57 10.22 91.67 10.29L91.67 10.29L91.67 10.29Q91.77 10.36 91.85 10.49L91.85 10.49L91.85 10.49Q91.99 10.96 92.49 11.28L92.49 11.28L92.49 11.28Q92.99 11.61 93.86 11.61L93.86 11.61L93.86 11.61Q94.84 11.61 95.33 11.28L95.33 11.28L95.33 11.28Q95.83 10.95 95.83 10.37L95.83 10.37L95.83 10.37Q95.83 10.00 95.58 9.74L95.58 9.74L95.58 9.74Q95.33 9.49 94.81 9.30L94.81 9.30L94.81 9.30Q94.30 9.11 93.30 8.85L93.30 8.85L93.30 8.85Q91.64 8.46 90.87 7.81L90.87 7.81L90.87 7.81Q90.10 7.17 90.10 5.96L90.10 5.96L90.10 5.96Q90.10 5.15 90.55 4.51L90.55 4.51L90.55 4.51Q91.00 3.88 91.83 3.51L91.83 3.51L91.83 3.51Q92.67 3.15 93.77 3.15L93.77 3.15L93.77 3.15Q94.93 3.15 95.78 3.56L95.78 3.56L95.78 3.56Q96.63 3.96 97.07 4.57L97.07 4.57L97.07 4.57Q97.51 5.18 97.54 5.78L97.54 5.78L97.54 5.78Q97.54 5.89 97.45 5.98L97.45 5.98L97.45 5.98Q97.37 6.08 97.24 6.08L97.24 6.08L95.91 6.08L95.91 6.08Q95.61 6.08 95.49 5.82L95.49 5.82L95.49 5.82Q95.42 5.38 94.95 5.07L94.95 5.07L94.95 5.07Q94.47 4.77 93.77 4.77L93.77 4.77L93.77 4.77Q93.00 4.77 92.56 5.07L92.56 5.07L92.56 5.07Q92.12 5.36 92.12 5.92L92.12 5.92L92.12 5.92Q92.12 6.30 92.34 6.55L92.34 6.55L92.34 6.55Q92.57 6.80 93.04 6.99L93.04 6.99L93.04 6.99Q93.52 7.18 94.43 7.42L94.43 7.42L94.43 7.42Q95.68 7.70 96.41 8.05L96.41 8.05L96.41 8.05Q97.15 8.40 97.50 8.93L97.50 8.93L97.50 8.93Q97.85 9.46 97.85 10.29L97.85 10.29L97.85 10.29Q97.85 11.20 97.35 11.87L97.35 11.87L97.35 11.87Q96.85 12.53 95.95 12.88L95.95 12.88L95.95 12.88Q95.05 13.23 93.86 13.23L93.86 13.23ZM102.58 13.09L102.58 13.09Q101.30 13.09 100.66 12.43L100.66 12.43L100.66 12.43Q100.02 11.76 100.02 10.47L100.02 10.47L100.02 7.31L98.91 7.31L98.91 7.31Q98.77 7.31 98.67 7.21L98.67 7.21L98.67 7.21Q98.57 7.11 98.57 6.97L98.57 6.97L98.57 6.15L98.57 6.15Q98.57 6.01 98.67 5.91L98.67 5.91L98.67 5.91Q98.77 5.81 98.91 5.81L98.91 5.81L100.02 5.81L100.02 3.49L100.02 3.49Q100.02 3.33 100.11 3.24L100.11 3.24L100.11 3.24Q100.21 3.15 100.35 3.15L100.35 3.15L101.51 3.15L101.51 3.15Q101.67 3.15 101.76 3.24L101.76 3.24L101.76 3.24Q101.85 3.33 101.85 3.49L101.85 3.49L101.85 5.81L103.60 5.81L103.60 5.81Q103.74 5.81 103.84 5.91L103.84 5.91L103.84 5.91Q103.94 6.01 103.94 6.15L103.94 6.15L103.94 6.97L103.94 6.97Q103.94 7.11 103.84 7.21L103.84 7.21L103.84 7.21Q103.74 7.31 103.60 7.31L103.60 7.31L101.85 7.31L101.85 10.32L101.85 10.32Q101.85 10.92 102.06 11.23L102.06 11.23L102.06 11.23Q102.27 11.54 102.75 11.54L102.75 11.54L103.73 11.54L103.73 11.54Q103.88 11.54 103.97 11.63L103.97 11.63L103.97 11.63Q104.06 11.72 104.06 11.87L104.06 11.87L104.06 12.75L104.06 12.75Q104.06 12.89 103.97 12.99L103.97 12.99L103.97 12.99Q103.88 13.09 103.73 13.09L103.73 13.09L102.58 13.09ZM108.01 13.23L108.01 13.23Q106.72 13.23 105.98 12.39L105.98 12.39L105.98 12.39Q105.24 11.55 105.24 10.08L105.24 10.08L105.24 6.15L105.24 6.15Q105.24 5.99 105.34 5.90L105.34 5.90L105.34 5.90Q105.43 5.81 105.57 5.81L105.57 5.81L106.83 5.81L106.83 5.81Q106.97 5.81 107.07 5.91L107.07 5.91L107.07 5.91Q107.17 6.01 107.17 6.15L107.17 6.15L107.17 10.00L107.17 10.00Q107.17 11.72 108.67 11.72L108.67 11.72L108.67 11.72Q109.40 11.72 109.82 11.26L109.82 11.26L109.82 11.26Q110.25 10.79 110.25 10.00L110.25 10.00L110.25 6.15L110.25 6.15Q110.25 5.99 110.35 5.90L110.35 5.90L110.35 5.90Q110.45 5.81 110.59 5.81L110.59 5.81L111.83 5.81L111.83 5.81Q111.99 5.81 112.08 5.90L112.08 5.90L112.08 5.90Q112.17 5.99 112.17 6.15L112.17 6.15L112.17 12.75L112.17 12.75Q112.17 12.89 112.08 12.99L112.08 12.99L112.08 12.99Q111.99 13.09 111.83 13.09L111.83 13.09L110.67 13.09L110.67 13.09Q110.53 13.09 110.43 12.99L110.43 12.99L110.43 12.99Q110.33 12.89 110.33 12.75L110.33 12.75L110.33 12.18L110.33 12.18Q109.56 13.23 108.01 13.23L108.01 13.23ZM116.72 13.23L116.72 13.23Q115.30 13.23 114.55 12.33L114.55 12.33L114.55 12.33Q113.79 11.42 113.72 9.91L113.72 9.91L113.71 9.45L113.72 8.99L113.72 8.99Q113.78 7.50 114.54 6.59L114.54 6.59L114.54 6.59Q115.30 5.67 116.72 5.67L116.72 5.67L116.72 5.67Q118.06 5.67 118.86 6.59L118.86 6.59L118.86 3.49L118.86 3.49Q118.86 3.33 118.96 3.24L118.96 3.24L118.96 3.24Q119.06 3.15 119.20 3.15L119.20 3.15L120.41 3.15L120.41 3.15Q120.57 3.15 120.66 3.24L120.66 3.24L120.66 3.24Q120.75 3.33 120.75 3.49L120.75 3.49L120.75 12.75L120.75 12.75Q120.75 12.89 120.66 12.99L120.66 12.99L120.66 12.99Q120.57 13.09 120.41 13.09L120.41 13.09L119.28 13.09L119.28 13.09Q119.14 13.09 119.04 12.99L119.04 12.99L119.04 12.99Q118.94 12.89 118.94 12.75L118.94 12.75L118.94 12.24L118.94 12.24Q118.17 13.23 116.72 13.23L116.72 13.23ZM117.25 11.72L117.25 11.72Q118.05 11.72 118.43 11.21L118.43 11.21L118.43 11.21Q118.82 10.70 118.86 9.94L118.86 9.94L118.86 9.94Q118.87 9.77 118.87 9.41L118.87 9.41L118.87 9.41Q118.87 9.03 118.86 8.86L118.86 8.86L118.86 8.86Q118.83 8.16 118.43 7.67L118.43 7.67L118.43 7.67Q118.02 7.18 117.25 7.18L117.25 7.18L117.25 7.18Q115.75 7.18 115.65 9.03L115.65 9.03L115.64 9.45L115.65 9.87L115.65 9.87Q115.75 11.72 117.25 11.72L117.25 11.72ZM122.89 4.62L122.89 4.62Q122.75 4.62 122.65 4.52L122.65 4.52L122.65 4.52Q122.56 4.42 122.56 4.28L122.56 4.28L122.56 3.26L122.56 3.26Q122.56 3.11 122.65 3.01L122.65 3.01L122.65 3.01Q122.75 2.91 122.89 2.91L122.89 2.91L124.18 2.91L124.18 2.91Q124.33 2.91 124.43 3.01L124.43 3.01L124.43 3.01Q124.53 3.11 124.53 3.26L124.53 3.26L124.53 4.28L124.53 4.28Q124.53 4.42 124.42 4.52L124.42 4.52L124.42 4.52Q124.32 4.62 124.18 4.62L124.18 4.62L122.89 4.62ZM122.95 13.09L122.95 13.09Q122.81 13.09 122.71 12.99L122.71 12.99L122.71 12.99Q122.61 12.89 122.61 12.75L122.61 12.75L122.61 6.15L122.61 6.15Q122.61 5.99 122.71 5.90L122.71 5.90L122.71 5.90Q122.81 5.81 122.95 5.81L122.95 5.81L124.14 5.81L124.14 5.81Q124.28 5.81 124.38 5.91L124.38 5.91L124.38 5.91Q124.47 6.01 124.47 6.15L124.47 6.15L124.47 12.75L124.47 12.75Q124.47 12.89 124.38 12.99L124.38 12.99L124.38 12.99Q124.28 13.09 124.14 13.09L124.14 13.09L122.95 13.09ZM129.56 13.23L129.56 13.23Q127.90 13.23 127.01 12.39L127.01 12.39L127.01 12.39Q126.11 11.55 126.04 10.07L126.04 10.07L126.03 9.45L126.04 8.83L126.04 8.83Q126.11 7.36 127.02 6.52L127.02 6.52L127.02 6.52Q127.93 5.67 129.56 5.67L129.56 5.67L129.56 5.67Q131.17 5.67 132.08 6.52L132.08 6.52L132.08 6.52Q132.99 7.36 133.06 8.83L133.06 8.83L133.06 8.83Q133.07 9.00 133.07 9.45L133.07 9.45L133.07 9.45Q133.07 9.90 133.06 10.07L133.06 10.07L133.06 10.07Q132.99 11.55 132.09 12.39L132.09 12.39L132.09 12.39Q131.19 13.23 129.56 13.23L129.56 13.23ZM129.56 11.82L129.56 11.82Q130.30 11.82 130.70 11.35L130.70 11.35L130.70 11.35Q131.10 10.89 131.12 10.00L131.12 10.00L131.12 10.00Q131.14 9.86 131.14 9.45L131.14 9.45L131.14 9.45Q131.14 9.04 131.12 8.90L131.12 8.90L131.12 8.90Q131.10 8.01 130.69 7.54L130.69 7.54L130.69 7.54Q130.28 7.07 129.56 7.07L129.56 7.07L129.56 7.07Q128.81 7.07 128.41 7.54L128.41 7.54L128.41 7.54Q128.00 8.01 127.97 8.90L127.97 8.90L127.96 9.45L127.97 10.00L127.97 10.00Q128.00 10.89 128.41 11.35L128.41 11.35L128.41 11.35Q128.81 11.82 129.56 11.82L129.56 11.82ZM137.40 13.23L137.40 13.23Q136.33 13.23 135.62 12.91L135.62 12.91L135.62 12.91Q134.90 12.59 134.56 12.16L134.56 12.16L134.56 12.16Q134.22 11.73 134.22 11.42L134.22 11.42L134.22 11.42Q134.22 11.28 134.31 11.20L134.31 11.20L134.31 11.20Q134.40 11.12 134.53 11.12L134.53 11.12L135.67 11.12L135.67 11.12Q135.79 11.12 135.87 11.23L135.87 11.23L135.87 11.23Q135.94 11.28 136.19 11.49L136.19 11.49L136.19 11.49Q136.43 11.70 136.74 11.82L136.74 11.82L136.74 11.82Q137.06 11.94 137.44 11.94L137.44 11.94L137.44 11.94Q138.00 11.94 138.35 11.72L138.35 11.72L138.35 11.72Q138.70 11.51 138.70 11.10L138.70 11.10L138.70 11.10Q138.70 10.82 138.54 10.65L138.54 10.65L138.54 10.65Q138.38 10.47 137.96 10.32L137.96 10.32L137.96 10.32Q137.55 10.18 136.72 10.00L136.72 10.00L136.72 10.00Q135.53 9.74 134.97 9.23L134.97 9.23L134.97 9.23Q134.40 8.71 134.40 7.85L134.40 7.85L134.40 7.85Q134.40 7.29 134.74 6.80L134.74 6.80L134.74 6.80Q135.07 6.30 135.74 5.98L135.74 5.98L135.74 5.98Q136.40 5.67 137.33 5.67L137.33 5.67L137.33 5.67Q138.28 5.67 138.96 5.97L138.96 5.97L138.96 5.97Q139.65 6.27 140.01 6.69L140.01 6.69L140.01 6.69Q140.36 7.11 140.36 7.43L140.36 7.43L140.36 7.43Q140.36 7.56 140.27 7.65L140.27 7.65L140.27 7.65Q140.18 7.74 140.06 7.74L140.06 7.74L139.01 7.74L139.01 7.74Q138.85 7.74 138.77 7.63L138.77 7.63L138.77 7.63Q138.67 7.56 138.45 7.37L138.45 7.37L138.45 7.37Q138.24 7.18 137.97 7.07L137.97 7.07L137.97 7.07Q137.70 6.96 137.33 6.96L137.33 6.96L137.33 6.96Q136.81 6.96 136.53 7.18L136.53 7.18L136.53 7.18Q136.25 7.41 136.25 7.77L136.25 7.77L136.25 7.77Q136.25 8.02 136.38 8.19L136.38 8.19L136.38 8.19Q136.51 8.36 136.92 8.50L136.92 8.50L136.92 8.50Q137.33 8.65 138.14 8.81L138.14 8.81L138.14 8.81Q140.66 9.30 140.66 11.00L140.66 11.00L140.66 11.00Q140.66 12.00 139.80 12.61L139.80 12.61L139.80 12.61Q138.94 13.23 137.40 13.23L137.40 13.23Z"></path></g><!----><!----><g data-v-423bf9ae="" id="45f4c1c0-7c29-49ab-9517-11d085febc07" fill="white" transform="matrix(5.172414048248195,0,0,5.172414048248195,-3.413785477103602,108.2241402440632)"><path d="M7.20 16.21L7.20 16.21L7.20 16.21Q7.17 16.23 7.14 16.23L7.14 16.23L7.14 16.23Q7.11 16.23 7.03 16.23L7.03 16.23L7.03 16.23Q6.83 16.23 6.57 16.16L6.57 16.16L6.57 16.16Q6.31 16.10 6.07 16.01L6.07 16.01L6.07 16.01Q5.82 15.92 5.65 15.81L5.65 15.81L5.65 15.81Q5.47 15.69 5.43 15.61L5.43 15.61L5.43 15.61Q5.42 15.41 5.42 15.20L5.42 15.20L5.42 15.20Q5.42 14.99 5.42 14.80L5.42 14.80L5.42 14.80Q5.42 13.23 5.65 11.52L5.65 11.52L5.65 11.52Q5.88 9.81 6.41 7.83L6.41 7.83L6.41 7.83Q6.47 7.63 6.53 7.33L6.53 7.33L6.53 7.33Q6.59 7.03 6.66 6.68L6.66 6.68L6.66 6.68Q6.33 6.94 5.87 7.53L5.87 7.53L5.87 7.53Q5.40 8.11 4.89 8.90L4.89 8.90L4.89 8.90Q4.38 9.69 3.87 10.63L3.87 10.63L3.87 10.63Q3.36 11.58 2.94 12.55L2.94 12.55L2.94 12.55Q2.52 13.52 2.22 14.48L2.22 14.48L2.22 14.48Q1.92 15.43 1.85 16.24L1.85 16.24L1.85 16.24Q1.18 16.04 0.92 15.85L0.92 15.85L0.92 15.85Q0.66 15.65 0.66 15.37L0.66 15.37L0.66 15.37Q0.66 15.12 0.81 14.66L0.81 14.66L0.81 14.66Q0.97 14.20 1.25 13.57L1.25 13.57L1.25 13.57Q1.53 12.94 1.93 12.16L1.93 12.16L1.93 12.16Q2.34 11.38 2.83 10.49L2.83 10.49L2.83 10.49Q3.39 9.46 3.93 8.57L3.93 8.57L3.93 8.57Q4.47 7.67 4.98 6.94L4.98 6.94L4.98 6.94Q5.50 6.22 6.00 5.68L6.00 5.68L6.00 5.68Q6.50 5.15 6.99 4.87L6.99 4.87L6.99 4.87Q7.18 4.87 7.51 4.97L7.51 4.97L7.51 4.97Q7.84 5.07 8.15 5.21L8.15 5.21L8.15 5.21Q8.47 5.35 8.71 5.49L8.71 5.49L8.71 5.49Q8.96 5.64 8.99 5.74L8.99 5.74L8.99 5.74Q8.79 6.13 8.53 6.92L8.53 6.92L8.53 6.92Q8.26 7.70 7.99 8.69L7.99 8.69L7.99 8.69Q7.71 9.69 7.47 10.80L7.47 10.80L7.47 10.80Q7.22 11.91 7.08 12.94L7.08 12.94L7.08 12.94Q7.41 12.17 7.83 11.33L7.83 11.33L7.83 11.33Q8.26 10.50 8.74 9.68L8.74 9.68L8.74 9.68Q9.21 8.86 9.71 8.09L9.71 8.09L9.71 8.09Q10.21 7.32 10.68 6.69L10.68 6.69L10.68 6.69Q11.16 6.05 11.57 5.57L11.57 5.57L11.57 5.57Q11.98 5.10 12.31 4.87L12.31 4.87L12.31 4.87Q12.50 4.87 12.83 4.97L12.83 4.97L12.83 4.97Q13.16 5.07 13.47 5.21L13.47 5.21L13.47 5.21Q13.79 5.35 14.04 5.49L14.04 5.49L14.04 5.49Q14.28 5.64 14.31 5.74L14.31 5.74L14.31 5.74Q13.86 6.54 13.52 7.69L13.52 7.69L13.52 7.69Q13.19 8.83 12.96 10.09L12.96 10.09L12.96 10.09Q12.73 11.35 12.61 12.59L12.61 12.59L12.61 12.59Q12.49 13.83 12.49 14.81L12.49 14.81L12.49 14.81Q12.49 15.13 12.49 15.48L12.49 15.48L12.49 15.48Q12.49 15.83 12.52 16.21L12.52 16.21L12.52 16.21Q12.32 16.21 12.05 16.16L12.05 16.16L12.05 16.16Q11.77 16.11 11.52 16.03L11.52 16.03L11.52 16.03Q11.26 15.95 11.05 15.84L11.05 15.84L11.05 15.84Q10.84 15.74 10.75 15.61L10.75 15.61L10.75 15.61Q10.74 15.41 10.74 15.20L10.74 15.20L10.74 15.20Q10.74 14.99 10.74 14.80L10.74 14.80L10.74 14.80Q10.74 13.23 10.97 11.52L10.97 11.52L10.97 11.52Q11.20 9.81 11.73 7.83L11.73 7.83L11.73 7.83Q11.79 7.63 11.86 7.29L11.86 7.29L11.86 7.29Q11.93 6.96 12.00 6.59L12.00 6.59L12.00 6.59Q11.61 6.79 11.11 7.34L11.11 7.34L11.11 7.34Q10.61 7.90 10.10 8.69L10.10 8.69L10.10 8.69Q9.59 9.48 9.09 10.44L9.09 10.44L9.09 10.44Q8.60 11.41 8.20 12.41L8.20 12.41L8.20 12.41Q7.80 13.41 7.53 14.40L7.53 14.40L7.53 14.40Q7.25 15.39 7.20 16.21ZM22.23 16.24L22.23 16.24L22.23 16.24Q21.56 16.04 21.30 15.85L21.30 15.85L21.30 15.85Q21.04 15.65 21.04 15.36L21.04 15.36L21.04 15.36Q21.04 15.13 21.17 14.73L21.17 14.73L21.17 14.73Q21.29 14.32 21.54 13.77L21.54 13.77L21.54 13.77Q21.78 13.22 22.13 12.54L22.13 12.54L22.13 12.54Q22.47 11.87 22.90 11.10L22.90 11.10L22.90 11.10Q22.54 11.09 22.25 11.08L22.25 11.08L22.25 11.08Q21.97 11.07 21.78 11.07L21.78 11.07L21.78 11.07Q21.87 10.86 22.26 10.71L22.26 10.71L22.26 10.71Q22.65 10.56 23.30 10.44L23.30 10.44L23.30 10.44Q23.84 9.53 24.47 8.71L24.47 8.71L24.47 8.71Q25.09 7.88 25.72 7.19L25.72 7.19L25.72 7.19Q26.35 6.50 26.98 5.97L26.98 5.97L26.98 5.97Q27.61 5.45 28.18 5.14L28.18 5.14L28.18 5.14Q28.20 5.04 28.20 4.97L28.20 4.97L28.20 4.97Q28.21 4.90 28.21 4.87L28.21 4.87L28.21 4.87Q28.41 4.87 28.74 4.97L28.74 4.97L28.74 4.97Q29.06 5.07 29.38 5.21L29.38 5.21L29.38 5.21Q29.69 5.35 29.94 5.49L29.94 5.49L29.94 5.49Q30.18 5.64 30.21 5.74L30.21 5.74L30.21 5.74Q29.75 6.55 29.30 8.17L29.30 8.17L29.30 8.17Q28.85 9.79 28.56 12.04L28.56 12.04L28.56 12.04Q28.49 12.60 28.44 13.31L28.44 13.31L28.44 13.31Q28.39 14.03 28.39 14.91L28.39 14.91L28.39 14.91Q28.39 15.22 28.39 15.54L28.39 15.54L28.39 15.54Q28.39 15.86 28.42 16.21L28.42 16.21L28.42 16.21Q28.39 16.23 28.36 16.23L28.36 16.23L28.36 16.23Q28.34 16.23 28.25 16.23L28.25 16.23L28.25 16.23Q28.06 16.23 27.80 16.16L27.80 16.16L27.80 16.16Q27.54 16.10 27.29 16.01L27.29 16.01L27.29 16.01Q27.05 15.92 26.87 15.81L26.87 15.81L26.87 15.81Q26.70 15.69 26.66 15.61L26.66 15.61L26.66 15.61Q26.64 15.43 26.64 15.25L26.64 15.25L26.64 15.25Q26.64 15.08 26.64 14.88L26.64 14.88L26.64 14.88Q26.64 14.01 26.71 13.12L26.71 13.12L26.71 13.12Q26.77 12.22 26.92 11.27L26.92 11.27L26.92 11.27Q26.73 11.26 26.40 11.23L26.40 11.23L26.40 11.23Q26.08 11.21 25.68 11.20L25.68 11.20L25.68 11.20Q25.28 11.19 24.83 11.16L24.83 11.16L24.83 11.16Q24.37 11.14 23.94 11.13L23.94 11.13L23.94 11.13Q23.60 11.76 23.31 12.38L23.31 12.38L23.31 12.38Q23.02 13.01 22.81 13.64L22.81 13.64L22.81 13.64Q22.57 14.31 22.42 14.98L22.42 14.98L22.42 14.98Q22.27 15.65 22.23 16.24ZM27.64 7.83L27.64 7.83L27.64 7.83Q27.69 7.63 27.77 7.29L27.77 7.29L27.77 7.29Q27.85 6.94 27.92 6.57L27.92 6.57L27.92 6.57Q27.57 6.69 27.14 7.03L27.14 7.03L27.14 7.03Q26.71 7.36 26.26 7.86L26.26 7.86L26.26 7.86Q25.80 8.36 25.33 8.98L25.33 8.98L25.33 8.98Q24.86 9.60 24.43 10.30L24.43 10.30L24.43 10.30Q25.61 10.21 27.10 10.18L27.10 10.18L27.10 10.18Q27.22 9.59 27.35 9.01L27.35 9.01L27.35 9.01Q27.48 8.43 27.64 7.83ZM40.85 10.74L40.85 10.74L40.85 10.74Q41.72 9.45 42.57 8.37L42.57 8.37L42.57 8.37Q43.41 7.28 44.18 6.50L44.18 6.50L44.18 6.50Q44.95 5.71 45.60 5.28L45.60 5.28L45.60 5.28Q46.24 4.84 46.72 4.84L46.72 4.84L46.72 4.84Q46.90 4.84 47.12 4.98L47.12 4.98L47.12 4.98Q47.33 5.12 47.52 5.35L47.52 5.35L47.52 5.35Q47.71 5.57 47.84 5.83L47.84 5.83L47.84 5.83Q47.96 6.09 47.96 6.33L47.96 6.33L47.96 6.33Q47.10 6.61 46.26 7.06L46.26 7.06L46.26 7.06Q45.43 7.52 44.67 8.11L44.67 8.11L44.67 8.11Q43.90 8.71 43.21 9.44L43.21 9.44L43.21 9.44Q42.52 10.16 41.96 10.99L41.96 10.99L41.96 10.99Q42.18 11.56 42.51 12.21L42.51 12.21L42.51 12.21Q42.84 12.87 43.23 13.47L43.23 13.47L43.23 13.47Q43.62 14.08 44.07 14.60L44.07 14.60L44.07 14.60Q44.52 15.12 44.98 15.43L44.98 15.43L44.98 15.43Q44.91 15.58 44.74 15.72L44.74 15.72L44.74 15.72Q44.58 15.86 44.38 15.98L44.38 15.98L44.38 15.98Q44.18 16.10 43.97 16.17L43.97 16.17L43.97 16.17Q43.75 16.24 43.57 16.24L43.57 16.24L43.57 16.24Q43.20 16.24 42.90 15.90L42.90 15.90L42.90 15.90Q42.59 15.55 42.27 14.86L42.27 14.86L42.27 14.86Q41.96 14.17 41.62 13.14L41.62 13.14L41.62 13.14Q41.27 12.11 40.85 10.74ZM38.74 16.31L38.74 16.31L38.74 16.31Q38.21 16.18 37.86 15.87L37.86 15.87L37.86 15.87Q37.51 15.55 37.21 15.08L37.21 15.08L37.21 15.08Q37.34 14.81 37.51 14.38L37.51 14.38L37.51 14.38Q37.69 13.94 37.94 13.31L37.94 13.31L37.94 13.31Q38.19 12.67 38.54 11.78L38.54 11.78L38.54 11.78Q38.89 10.89 39.35 9.70L39.35 9.70L39.35 9.70Q39.65 8.95 39.84 8.43L39.84 8.43L39.84 8.43Q40.03 7.91 40.16 7.41L40.16 7.41L40.16 7.41Q40.29 6.92 40.42 6.31L40.42 6.31L40.42 6.31Q40.54 5.71 40.71 4.79L40.71 4.79L40.71 4.79Q41.30 4.90 41.78 5.31L41.78 5.31L41.78 5.31Q42.27 5.71 42.62 6.29L42.62 6.29L42.62 6.29Q42.46 6.48 42.26 6.88L42.26 6.88L42.26 6.88Q42.06 7.28 41.80 7.84L41.80 7.84L41.80 7.84Q41.55 8.40 41.24 9.09L41.24 9.09L41.24 9.09Q40.94 9.77 40.60 10.54L40.60 10.54L40.60 10.54Q39.84 12.22 39.41 13.62L39.41 13.62L39.41 13.62Q38.98 15.01 38.74 16.31ZM53.98 14.38L53.98 14.38L53.98 14.38Q53.98 13.87 54.14 13.07L54.14 13.07L54.14 13.07Q54.31 12.26 54.56 11.33L54.56 11.33L54.56 11.33Q54.82 10.40 55.16 9.43L55.16 9.43L55.16 9.43Q55.50 8.46 55.85 7.60L55.85 7.60L55.85 7.60Q56.20 6.75 56.53 6.10L56.53 6.10L56.53 6.10Q56.87 5.46 57.13 5.18L57.13 5.18L57.13 5.18Q57.27 5.19 57.50 5.29L57.50 5.29L57.50 5.29Q57.74 5.38 57.97 5.50L57.97 5.50L57.97 5.50Q58.21 5.63 58.41 5.78L58.41 5.78L58.41 5.78Q58.60 5.92 58.66 6.05L58.66 6.05L58.66 6.05Q58.25 6.41 57.85 7.15L57.85 7.15L57.85 7.15Q57.46 7.88 57.09 8.82L57.09 8.82L57.09 8.82Q56.71 9.76 56.39 10.80L56.39 10.80L56.39 10.80Q56.07 11.84 55.83 12.82L55.83 12.82L55.83 12.82Q55.59 13.80 55.46 14.64L55.46 14.64L55.46 14.64Q55.33 15.48 55.33 16.00L55.33 16.00L55.33 16.00Q55.33 16.24 55.37 16.30L55.37 16.30L55.37 16.30Q55.06 16.28 54.92 16.19L54.92 16.19L54.92 16.19Q54.78 16.10 54.70 16.00L54.70 16.00L54.70 16.00Q54.63 15.89 54.56 15.79L54.56 15.79L54.56 15.79Q54.50 15.68 54.38 15.62L54.38 15.62L54.38 15.62Q54.28 15.58 54.21 15.43L54.21 15.43L54.21 15.43Q54.14 15.27 54.09 15.09L54.09 15.09L54.09 15.09Q54.04 14.90 54.01 14.70L54.01 14.70L54.01 14.70Q53.98 14.50 53.98 14.38ZM66.22 16.24L66.22 16.24L66.22 16.24Q65.42 16.00 65.14 15.79L65.14 15.79L65.14 15.79Q64.86 15.57 64.86 15.19L64.86 15.19L64.86 15.19Q64.86 14.77 65.06 14.01L65.06 14.01L65.06 14.01Q65.25 13.24 65.57 12.31L65.57 12.31L65.57 12.31Q65.88 11.37 66.29 10.35L66.29 10.35L66.29 10.35Q66.70 9.32 67.12 8.39L67.12 8.39L67.12 8.39Q67.54 7.45 67.94 6.67L67.94 6.67L67.94 6.67Q68.33 5.89 68.64 5.46L68.64 5.46L68.54 4.87L68.54 4.87Q68.74 4.87 69.09 4.97L69.09 4.97L69.09 4.97Q69.44 5.07 69.80 5.21L69.80 5.21L69.80 5.21Q70.15 5.35 70.43 5.49L70.43 5.49L70.43 5.49Q70.70 5.64 70.73 5.74L70.73 5.74L70.73 5.74Q70.66 6.08 70.62 6.76L70.62 6.76L70.62 6.76Q70.57 7.43 70.57 8.20L70.57 8.20L70.57 8.20Q70.57 9.73 70.69 11.19L70.69 11.19L70.69 11.19Q70.81 12.66 71.25 14.17L71.25 14.17L71.25 14.17Q71.47 13.05 71.73 11.94L71.73 11.94L71.73 11.94Q71.99 10.82 72.27 9.81L72.27 9.81L72.27 9.81Q72.55 8.79 72.83 7.92L72.83 7.92L72.83 7.92Q73.11 7.06 73.37 6.40L73.37 6.40L73.37 6.40Q73.63 5.75 73.85 5.38L73.85 5.38L73.85 5.38Q74.07 5.01 74.26 4.98L74.26 4.98L74.26 4.98Q74.41 5.01 74.59 5.10L74.59 5.10L74.59 5.10Q74.77 5.19 74.94 5.32L74.94 5.32L74.94 5.32Q75.11 5.45 75.25 5.60L75.25 5.60L75.25 5.60Q75.39 5.75 75.47 5.91L75.47 5.91L75.47 5.91Q75.03 6.09 74.59 6.76L74.59 6.76L74.59 6.76Q74.14 7.43 73.75 8.39L73.75 8.39L73.75 8.39Q73.35 9.35 73.00 10.47L73.00 10.47L73.00 10.47Q72.66 11.59 72.40 12.68L72.40 12.68L72.40 12.68Q72.14 13.76 72.00 14.69L72.00 14.69L72.00 14.69Q71.85 15.61 71.83 16.17L71.83 16.17L71.83 16.17Q71.83 16.20 71.85 16.21L71.85 16.21L71.85 16.21Q71.81 16.23 71.76 16.23L71.76 16.23L71.76 16.23Q71.71 16.23 71.67 16.23L71.67 16.23L71.67 16.23Q71.02 16.23 70.53 16.07L70.53 16.07L70.53 16.07Q70.03 15.90 69.87 15.61L69.87 15.61L69.87 15.61Q69.58 14.43 69.38 13.34L69.38 13.34L69.38 13.34Q69.19 12.25 69.06 11.16L69.06 11.16L69.06 11.16Q68.92 10.07 68.84 8.95L68.84 8.95L68.84 8.95Q68.77 7.84 68.73 6.62L68.73 6.62L68.73 6.62Q68.46 7.04 68.17 7.72L68.17 7.72L68.17 7.72Q67.87 8.40 67.59 9.21L67.59 9.21L67.59 9.21Q67.31 10.02 67.05 10.92L67.05 10.92L67.05 10.92Q66.79 11.82 66.60 12.67L66.60 12.67L66.60 12.67Q66.40 13.52 66.29 14.29L66.29 14.29L66.29 14.29Q66.18 15.05 66.18 15.61L66.18 15.61L66.18 15.61Q66.18 15.90 66.19 16.03L66.19 16.03L66.19 16.03Q66.19 16.16 66.22 16.24ZM89.29 10.72L89.29 10.72L89.29 10.72Q89.66 10.72 89.87 10.98L89.87 10.98L89.87 10.98Q90.08 11.23 90.08 11.68L90.08 11.68L90.08 11.68Q90.08 11.79 90.06 11.91L90.06 11.91L90.06 11.91Q90.05 12.03 90.02 12.11L90.02 12.11L90.02 12.11Q89.73 12.04 89.38 12.03L89.38 12.03L89.38 12.03Q89.29 12.64 88.93 13.32L88.93 13.32L88.93 13.32Q88.56 14 88.05 14.60L88.05 14.60L88.05 14.60Q87.53 15.19 86.91 15.64L86.91 15.64L86.91 15.64Q86.30 16.09 85.69 16.24L85.69 16.24L85.69 16.24Q83.82 16.20 82.96 15.27L82.96 15.27L82.96 15.27Q82.10 14.34 82.10 12.36L82.10 12.36L82.10 12.36Q82.10 10.92 82.63 9.57L82.63 9.57L82.63 9.57Q83.16 8.22 84.04 7.17L84.04 7.17L84.04 7.17Q84.92 6.12 86.06 5.48L86.06 5.48L86.06 5.48Q87.21 4.84 88.44 4.84L88.44 4.84L88.44 4.84Q89.40 4.84 89.94 5.25L89.94 5.25L89.94 5.25Q90.48 5.66 90.48 6.40L90.48 6.40L90.48 6.40Q90.48 6.89 90.25 7.31L90.25 7.31L90.25 7.31Q90.02 7.73 89.49 8.22L89.49 8.22L89.49 8.22Q89.17 8.12 88.93 7.88L88.93 7.88L88.93 7.88Q88.69 7.63 88.63 7.31L88.63 7.31L88.63 7.31Q89.11 6.96 89.31 6.66L89.31 6.66L89.31 6.66Q89.50 6.37 89.50 5.96L89.50 5.96L89.50 5.96Q89.50 5.32 88.73 5.32L88.73 5.32L88.73 5.32Q88.10 5.32 87.38 5.79L87.38 5.79L87.38 5.79Q86.66 6.26 85.93 7.14L85.93 7.14L85.93 7.14Q84.90 8.39 84.42 9.71L84.42 9.71L84.42 9.71Q83.94 11.03 83.94 12.68L83.94 12.68L83.94 12.68Q83.94 13.30 84.07 13.80L84.07 13.80L84.07 13.80Q84.20 14.31 84.41 14.69L84.41 14.69L84.41 14.69Q84.62 15.06 84.90 15.29L84.90 15.29L84.90 15.29Q85.19 15.51 85.53 15.54L85.53 15.54L85.53 15.54Q85.97 15.44 86.42 15.09L86.42 15.09L86.42 15.09Q86.87 14.73 87.24 14.25L87.24 14.25L87.24 14.25Q87.61 13.76 87.87 13.21L87.87 13.21L87.87 13.21Q88.13 12.66 88.19 12.15L88.19 12.15L88.19 12.15Q87.79 12.24 87.44 12.31L87.44 12.31L87.44 12.31Q87.08 12.39 86.76 12.39L86.76 12.39L86.76 12.39Q86.34 12.39 86.02 12.18L86.02 12.18L86.02 12.18Q85.71 11.97 85.60 11.61L85.60 11.61L85.60 11.61Q85.85 11.47 86.33 11.31L86.33 11.31L86.33 11.31Q86.81 11.16 87.36 11.03L87.36 11.03L87.36 11.03Q87.91 10.89 88.43 10.81L88.43 10.81L88.43 10.81Q88.96 10.72 89.29 10.72ZM108.60 16.24L108.60 16.24L108.60 16.24Q107.93 16.04 107.67 15.85L107.67 15.85L107.67 15.85Q107.41 15.65 107.41 15.36L107.41 15.36L107.41 15.36Q107.41 15.13 107.53 14.73L107.53 14.73L107.53 14.73Q107.66 14.32 107.90 13.77L107.90 13.77L107.90 13.77Q108.15 13.22 108.49 12.54L108.49 12.54L108.49 12.54Q108.84 11.87 109.27 11.10L109.27 11.10L109.27 11.10Q108.91 11.09 108.62 11.08L108.62 11.08L108.62 11.08Q108.33 11.07 108.15 11.07L108.15 11.07L108.15 11.07Q108.23 10.86 108.63 10.71L108.63 10.71L108.63 10.71Q109.02 10.56 109.66 10.44L109.66 10.44L109.66 10.44Q110.21 9.53 110.83 8.71L110.83 8.71L110.83 8.71Q111.45 7.88 112.08 7.19L112.08 7.19L112.08 7.19Q112.71 6.50 113.34 5.97L113.34 5.97L113.34 5.97Q113.97 5.45 114.55 5.14L114.55 5.14L114.55 5.14Q114.56 5.04 114.57 4.97L114.57 4.97L114.57 4.97Q114.58 4.90 114.58 4.87L114.58 4.87L114.58 4.87Q114.77 4.87 115.10 4.97L115.10 4.97L115.10 4.97Q115.43 5.07 115.74 5.21L115.74 5.21L115.74 5.21Q116.06 5.35 116.30 5.49L116.30 5.49L116.30 5.49Q116.55 5.64 116.58 5.74L116.58 5.74L116.58 5.74Q116.12 6.55 115.67 8.17L115.67 8.17L115.67 8.17Q115.22 9.79 114.93 12.04L114.93 12.04L114.93 12.04Q114.86 12.60 114.81 13.31L114.81 13.31L114.81 13.31Q114.76 14.03 114.76 14.91L114.76 14.91L114.76 14.91Q114.76 15.22 114.76 15.54L114.76 15.54L114.76 15.54Q114.76 15.86 114.79 16.21L114.79 16.21L114.79 16.21Q114.76 16.23 114.73 16.23L114.73 16.23L114.73 16.23Q114.70 16.23 114.62 16.23L114.62 16.23L114.62 16.23Q114.42 16.23 114.16 16.16L114.16 16.16L114.16 16.16Q113.90 16.10 113.66 16.01L113.66 16.01L113.66 16.01Q113.41 15.92 113.24 15.81L113.24 15.81L113.24 15.81Q113.06 15.69 113.02 15.61L113.02 15.61L113.02 15.61Q113.01 15.43 113.01 15.25L113.01 15.25L113.01 15.25Q113.01 15.08 113.01 14.88L113.01 14.88L113.01 14.88Q113.01 14.01 113.07 13.12L113.07 13.12L113.07 13.12Q113.13 12.22 113.29 11.27L113.29 11.27L113.29 11.27Q113.09 11.26 112.77 11.23L112.77 11.23L112.77 11.23Q112.45 11.21 112.05 11.20L112.05 11.20L112.05 11.20Q111.65 11.19 111.19 11.16L111.19 11.16L111.19 11.16Q110.74 11.14 110.31 11.13L110.31 11.13L110.31 11.13Q109.97 11.76 109.68 12.38L109.68 12.38L109.68 12.38Q109.38 13.01 109.17 13.64L109.17 13.64L109.17 13.64Q108.93 14.31 108.79 14.98L108.79 14.98L108.79 14.98Q108.64 15.65 108.60 16.24ZM114.00 7.83L114.00 7.83L114.00 7.83Q114.06 7.63 114.13 7.29L114.13 7.29L114.13 7.29Q114.21 6.94 114.28 6.57L114.28 6.57L114.28 6.57Q113.93 6.69 113.50 7.03L113.50 7.03L113.50 7.03Q113.08 7.36 112.62 7.86L112.62 7.86L112.62 7.86Q112.17 8.36 111.70 8.98L111.70 8.98L111.70 8.98Q111.23 9.60 110.80 10.30L110.80 10.30L110.80 10.30Q111.97 10.21 113.47 10.18L113.47 10.18L113.47 10.18Q113.58 9.59 113.71 9.01L113.71 9.01L113.71 9.01Q113.85 8.43 114.00 7.83ZM143.93 7.46L143.93 7.46L143.93 7.46Q143.93 8.33 143.46 9.01L143.46 9.01L143.46 9.01Q142.98 9.69 142.16 10.14L142.16 10.14L142.16 10.14Q142.69 10.50 143.00 11.03L143.00 11.03L143.00 11.03Q143.32 11.55 143.32 12.18L143.32 12.18L143.32 12.18Q143.32 12.94 142.86 13.67L142.86 13.67L142.86 13.67Q142.41 14.41 141.65 14.97L141.65 14.97L141.65 14.97Q140.90 15.54 139.93 15.89L139.93 15.89L139.93 15.89Q138.96 16.24 137.96 16.24L137.96 16.24L137.96 16.24Q136.86 16.24 136.04 15.83L136.04 15.83L136.04 15.83Q135.23 15.41 134.76 14.66L134.76 14.66L134.76 14.66Q134.90 14.24 135.13 13.62L135.13 13.62L135.13 13.62Q135.37 12.99 135.65 12.30L135.65 12.30L135.65 12.30Q135.93 11.61 136.21 10.92L136.21 10.92L136.21 10.92Q136.50 10.23 136.75 9.69L136.75 9.69L136.75 9.69Q137.28 8.50 137.70 7.71L137.70 7.71L137.70 7.71Q138.12 6.93 138.47 6.47L138.47 6.47L138.47 6.47Q137.70 6.71 137.07 7.01L137.07 7.01L137.07 7.01Q136.44 7.31 136.15 7.59L136.15 7.59L136.15 7.59Q136.02 7.50 135.89 7.34L135.89 7.34L135.89 7.34Q135.76 7.17 135.64 6.96L135.64 6.96L135.64 6.96Q135.52 6.76 135.44 6.55L135.44 6.55L135.44 6.55Q135.37 6.34 135.35 6.17L135.35 6.17L135.35 6.17Q135.72 5.92 136.30 5.69L136.30 5.69L136.30 5.69Q136.88 5.46 137.56 5.29L137.56 5.29L137.56 5.29Q138.25 5.12 138.97 5.03L138.97 5.03L138.97 5.03Q139.69 4.93 140.35 4.93L140.35 4.93L140.35 4.93Q142.03 4.93 142.98 5.60L142.98 5.60L142.98 5.60Q143.93 6.27 143.93 7.46ZM138.60 10.81L138.60 10.81L138.60 10.81Q138.33 10.68 138.11 10.43L138.11 10.43L138.11 10.43Q137.79 11.14 137.50 11.83L137.50 11.83L137.50 11.83Q137.21 12.52 136.99 13.10L136.99 13.10L136.99 13.10Q136.77 13.69 136.63 14.13L136.63 14.13L136.63 14.13Q136.49 14.56 136.47 14.76L136.47 14.76L136.47 14.76Q136.67 14.87 136.94 14.92L136.94 14.92L136.94 14.92Q137.21 14.98 137.62 14.98L137.62 14.98L137.62 14.98Q138.57 14.98 139.44 14.71L139.44 14.71L139.44 14.71Q140.31 14.45 140.97 13.99L140.97 13.99L140.97 13.99Q141.62 13.54 142.02 12.95L142.02 12.95L142.02 12.95Q142.41 12.36 142.41 11.72L142.41 11.72L142.41 11.72Q142.41 10.79 141.61 10.39L141.61 10.39L141.61 10.39Q140.52 10.84 139.15 10.84L139.15 10.84L139.15 10.84Q138.95 10.84 138.84 10.84L138.84 10.84L138.84 10.84Q138.74 10.84 138.60 10.81ZM141.32 5.95L141.32 5.95L141.32 5.95Q141.02 5.95 140.69 5.98L140.69 5.98L140.69 5.98Q140.36 6.02 140.00 6.09L140.00 6.09L140.00 6.09Q140.06 6.15 140.09 6.21L140.09 6.21L140.09 6.21Q140.13 6.27 140.15 6.34L140.15 6.34L140.15 6.34Q140.03 6.51 139.85 6.83L139.85 6.83L139.85 6.83Q139.66 7.15 139.44 7.58L139.44 7.58L139.44 7.58Q139.22 8.01 138.97 8.53L138.97 8.53L138.97 8.53Q138.73 9.04 138.47 9.59L138.47 9.59L138.47 9.59Q138.71 9.53 139.05 9.50L139.05 9.50L139.05 9.50Q139.40 9.46 139.73 9.46L139.73 9.46L139.73 9.46Q139.92 9.46 140.09 9.48L140.09 9.48L140.09 9.48Q140.27 9.49 140.43 9.52L140.43 9.52L140.43 9.52Q141.11 9.41 141.64 9.19L141.64 9.19L141.64 9.19Q142.18 8.97 142.58 8.69L142.58 8.69L142.58 8.69Q142.97 8.40 143.18 8.05L143.18 8.05L143.18 8.05Q143.39 7.70 143.39 7.31L143.39 7.31L143.39 7.31Q143.39 6.64 142.86 6.29L142.86 6.29L142.86 6.29Q142.32 5.95 141.32 5.95ZM157.07 9.21L157.07 9.21L157.07 9.21Q157.53 9.21 157.79 9.46L157.79 9.46L157.79 9.46Q158.05 9.72 158.05 10.16L158.05 10.16L158.05 10.16Q158.05 10.28 158.02 10.39L158.02 10.39L158.02 10.39Q158.00 10.51 157.98 10.60L157.98 10.60L157.98 10.60Q157.79 10.57 157.57 10.55L157.57 10.55L157.57 10.55Q157.35 10.53 157.04 10.53L157.04 10.53L157.04 10.53Q156.44 10.53 155.82 10.63L155.82 10.63L155.82 10.63Q155.20 10.74 154.64 10.81L154.64 10.81L154.64 10.81Q154.32 11.55 154.06 12.24L154.06 12.24L154.06 12.24Q153.79 12.94 153.60 13.51L153.60 13.51L153.60 13.51Q153.41 14.08 153.31 14.50L153.31 14.50L153.31 14.50Q153.20 14.92 153.19 15.13L153.19 15.13L153.19 15.13Q154.32 14.90 155.48 14.73L155.48 14.73L155.48 14.73Q156.63 14.56 157.91 14.48L157.91 14.48L157.91 14.48Q158.06 14.71 158.16 14.99L158.16 14.99L158.16 14.99Q158.27 15.27 158.27 15.60L158.27 15.60L158.27 15.60Q158.27 15.68 158.27 15.78L158.27 15.78L158.27 15.78Q158.27 15.88 158.24 15.97L158.24 15.97L158.24 15.97Q157.85 15.96 157.42 15.95L157.42 15.95L157.42 15.95Q156.98 15.95 156.28 15.95L156.28 15.95L156.28 15.95Q155.82 15.95 155.41 15.97L155.41 15.97L155.41 15.97Q154.99 15.99 154.57 16.03L154.57 16.03L154.57 16.03Q154.15 16.07 153.68 16.14L153.68 16.14L153.68 16.14Q153.22 16.21 152.63 16.31L152.63 16.31L152.63 16.31Q151.98 16.06 151.38 15.08L151.38 15.08L151.38 15.08Q151.62 14.57 152.05 13.54L152.05 13.54L152.05 13.54Q152.47 12.52 153.13 10.79L153.13 10.79L153.13 10.79Q152.50 10.60 152.31 10.09L152.31 10.09L152.31 10.09Q152.38 10.02 152.71 9.92L152.71 9.92L152.71 9.92Q153.05 9.81 153.54 9.70L153.54 9.70L153.54 9.70Q153.75 9.16 153.89 8.75L153.89 8.75L153.89 8.75Q154.04 8.34 154.15 7.99L154.15 7.99L154.15 7.99Q154.27 7.63 154.36 7.29L154.36 7.29L154.36 7.29Q154.45 6.94 154.53 6.54L154.53 6.54L154.53 6.54Q154.04 6.51 153.76 6.27L153.76 6.27L153.76 6.27Q153.48 6.02 153.48 5.63L153.48 5.63L153.48 5.63Q153.48 5.52 153.52 5.36L153.52 5.36L153.52 5.36Q153.55 5.21 153.59 5.10L153.59 5.10L153.59 5.10Q153.87 5.14 154.13 5.15L154.13 5.15L154.13 5.15Q154.39 5.17 154.81 5.17L154.81 5.17L154.81 5.17Q155.69 5.17 156.46 5.12L156.46 5.12L156.46 5.12Q157.23 5.07 157.86 5.01L157.86 5.01L157.86 5.01Q158.48 4.96 158.93 4.91L158.93 4.91L158.93 4.91Q159.38 4.86 159.61 4.86L159.61 4.86L159.61 4.86Q159.94 4.86 160.19 5.19L160.19 5.19L160.19 5.19Q160.44 5.53 160.57 6.15L160.57 6.15L160.57 6.15Q160.13 6.10 159.86 6.09L159.86 6.09L159.86 6.09Q159.59 6.08 159.38 6.08L159.38 6.08L159.38 6.08Q158.61 6.08 157.97 6.15L157.97 6.15L157.97 6.15Q157.33 6.23 156.74 6.31L156.74 6.31L156.74 6.31Q156.66 6.44 156.55 6.64L156.55 6.64L156.55 6.64Q156.45 6.83 156.28 7.18L156.28 7.18L156.28 7.18Q156.11 7.53 155.87 8.06L155.87 8.06L155.87 8.06Q155.62 8.60 155.27 9.39L155.27 9.39L155.27 9.39Q155.81 9.31 156.27 9.26L156.27 9.26L156.27 9.26Q156.74 9.21 157.07 9.21ZM169.58 6.69L169.58 6.69L169.58 6.69Q169.02 6.69 168.72 6.38L168.72 6.38L168.72 6.38Q168.42 6.06 168.42 5.61L168.42 5.61L168.42 5.61Q168.42 5.50 168.45 5.35L168.45 5.35L168.45 5.35Q168.49 5.19 168.55 5.08L168.55 5.08L168.55 5.08Q168.73 5.17 169.08 5.20L169.08 5.20L169.08 5.20Q169.44 5.24 169.92 5.24L169.92 5.24L169.92 5.24Q170.63 5.24 171.53 5.17L171.53 5.17L171.53 5.17Q172.44 5.11 173.26 5.04L173.26 5.04L173.26 5.04Q174.09 4.97 174.72 4.91L174.72 4.91L174.72 4.91Q175.35 4.84 175.53 4.84L175.53 4.84L175.53 4.84Q176.05 4.84 176.28 5.23L176.28 5.23L176.28 5.23Q176.51 5.61 176.62 6.26L176.62 6.26L176.62 6.26Q176.26 6.23 175.90 6.21L175.90 6.21L175.90 6.21Q175.55 6.19 175.29 6.19L175.29 6.19L175.29 6.19Q174.85 6.19 174.39 6.22L174.39 6.22L174.39 6.22Q173.94 6.24 173.47 6.30L173.47 6.30L173.47 6.30Q173.28 6.71 173.04 7.26L173.04 7.26L173.04 7.26Q172.80 7.81 172.57 8.41L172.57 8.41L172.57 8.41Q172.34 9.02 172.13 9.61L172.13 9.61L172.13 9.61Q171.92 10.21 171.77 10.68L171.77 10.68L171.77 10.68Q171.46 11.61 171.23 12.39L171.23 12.39L171.23 12.39Q171.00 13.17 170.82 13.85L170.82 13.85L170.82 13.85Q170.65 14.53 170.52 15.15L170.52 15.15L170.52 15.15Q170.39 15.76 170.30 16.35L170.30 16.35L170.30 16.35Q169.36 16.21 168.73 15.18L168.73 15.18L168.73 15.18Q168.84 14.74 169.00 14.23L169.00 14.23L169.00 14.23Q169.16 13.72 169.38 13.07L169.38 13.07L169.38 13.07Q169.60 12.42 169.89 11.59L169.89 11.59L169.89 11.59Q170.18 10.77 170.56 9.72L170.56 9.72L170.56 9.72Q170.70 9.32 170.86 8.90L170.86 8.90L170.86 8.90Q171.01 8.47 171.16 8.05L171.16 8.05L171.16 8.05Q171.30 7.63 171.42 7.24L171.42 7.24L171.42 7.24Q171.54 6.85 171.63 6.52L171.63 6.52L171.63 6.52Q171.04 6.59 170.51 6.64L170.51 6.64L170.51 6.64Q169.99 6.69 169.58 6.69ZM184.81 6.69L184.81 6.69L184.81 6.69Q184.25 6.69 183.95 6.38L183.95 6.38L183.95 6.38Q183.65 6.06 183.65 5.61L183.65 5.61L183.65 5.61Q183.65 5.50 183.69 5.35L183.69 5.35L183.69 5.35Q183.72 5.19 183.78 5.08L183.78 5.08L183.78 5.08Q183.96 5.17 184.32 5.20L184.32 5.20L184.32 5.20Q184.67 5.24 185.15 5.24L185.15 5.24L185.15 5.24Q185.86 5.24 186.77 5.17L186.77 5.17L186.77 5.17Q187.67 5.11 188.50 5.04L188.50 5.04L188.50 5.04Q189.32 4.97 189.95 4.91L189.95 4.91L189.95 4.91Q190.58 4.84 190.76 4.84L190.76 4.84L190.76 4.84Q191.28 4.84 191.51 5.23L191.51 5.23L191.51 5.23Q191.74 5.61 191.86 6.26L191.86 6.26L191.86 6.26Q191.49 6.23 191.13 6.21L191.13 6.21L191.13 6.21Q190.78 6.19 190.53 6.19L190.53 6.19L190.53 6.19Q190.08 6.19 189.62 6.22L189.62 6.22L189.62 6.22Q189.17 6.24 188.71 6.30L188.71 6.30L188.71 6.30Q188.51 6.71 188.27 7.26L188.27 7.26L188.27 7.26Q188.03 7.81 187.80 8.41L187.80 8.41L187.80 8.41Q187.57 9.02 187.36 9.61L187.36 9.61L187.36 9.61Q187.15 10.21 187.00 10.68L187.00 10.68L187.00 10.68Q186.69 11.61 186.46 12.39L186.46 12.39L186.46 12.39Q186.23 13.17 186.05 13.85L186.05 13.85L186.05 13.85Q185.88 14.53 185.75 15.15L185.75 15.15L185.75 15.15Q185.63 15.76 185.53 16.35L185.53 16.35L185.53 16.35Q184.59 16.21 183.96 15.18L183.96 15.18L183.96 15.18Q184.07 14.74 184.23 14.23L184.23 14.23L184.23 14.23Q184.39 13.72 184.61 13.07L184.61 13.07L184.61 13.07Q184.83 12.42 185.12 11.59L185.12 11.59L185.12 11.59Q185.42 10.77 185.79 9.72L185.79 9.72L185.79 9.72Q185.93 9.32 186.09 8.90L186.09 8.90L186.09 8.90Q186.24 8.47 186.39 8.05L186.39 8.05L186.39 8.05Q186.54 7.63 186.65 7.24L186.65 7.24L186.65 7.24Q186.77 6.85 186.86 6.52L186.86 6.52L186.86 6.52Q186.27 6.59 185.74 6.64L185.74 6.64L185.74 6.64Q185.22 6.69 184.81 6.69ZM203.06 9.21L203.06 9.21L203.06 9.21Q203.52 9.21 203.78 9.46L203.78 9.46L203.78 9.46Q204.04 9.72 204.04 10.16L204.04 10.16L204.04 10.16Q204.04 10.28 204.01 10.39L204.01 10.39L204.01 10.39Q203.99 10.51 203.97 10.60L203.97 10.60L203.97 10.60Q203.78 10.57 203.56 10.55L203.56 10.55L203.56 10.55Q203.34 10.53 203.03 10.53L203.03 10.53L203.03 10.53Q202.43 10.53 201.81 10.63L201.81 10.63L201.81 10.63Q201.19 10.74 200.63 10.81L200.63 10.81L200.63 10.81Q200.31 11.55 200.05 12.24L200.05 12.24L200.05 12.24Q199.78 12.94 199.59 13.51L199.59 13.51L199.59 13.51Q199.40 14.08 199.30 14.50L199.30 14.50L199.30 14.50Q199.19 14.92 199.18 15.13L199.18 15.13L199.18 15.13Q200.31 14.90 201.47 14.73L201.47 14.73L201.47 14.73Q202.62 14.56 203.90 14.48L203.90 14.48L203.90 14.48Q204.05 14.71 204.15 14.99L204.15 14.99L204.15 14.99Q204.26 15.27 204.26 15.60L204.26 15.60L204.26 15.60Q204.26 15.68 204.26 15.78L204.26 15.78L204.26 15.78Q204.26 15.88 204.23 15.97L204.23 15.97L204.23 15.97Q203.84 15.96 203.41 15.95L203.41 15.95L203.41 15.95Q202.97 15.95 202.27 15.95L202.27 15.95L202.27 15.95Q201.81 15.95 201.40 15.97L201.40 15.97L201.40 15.97Q200.98 15.99 200.56 16.03L200.56 16.03L200.56 16.03Q200.14 16.07 199.67 16.14L199.67 16.14L199.67 16.14Q199.21 16.21 198.62 16.31L198.62 16.31L198.62 16.31Q197.97 16.06 197.37 15.08L197.37 15.08L197.37 15.08Q197.61 14.57 198.04 13.54L198.04 13.54L198.04 13.54Q198.46 12.52 199.12 10.79L199.12 10.79L199.12 10.79Q198.49 10.60 198.30 10.09L198.30 10.09L198.30 10.09Q198.37 10.02 198.70 9.92L198.70 9.92L198.70 9.92Q199.04 9.81 199.53 9.70L199.53 9.70L199.53 9.70Q199.74 9.16 199.88 8.75L199.88 8.75L199.88 8.75Q200.03 8.34 200.14 7.99L200.14 7.99L200.14 7.99Q200.26 7.63 200.35 7.29L200.35 7.29L200.35 7.29Q200.44 6.94 200.52 6.54L200.52 6.54L200.52 6.54Q200.03 6.51 199.75 6.27L199.75 6.27L199.75 6.27Q199.47 6.02 199.47 5.63L199.47 5.63L199.47 5.63Q199.47 5.52 199.51 5.36L199.51 5.36L199.51 5.36Q199.54 5.21 199.58 5.10L199.58 5.10L199.58 5.10Q199.86 5.14 200.12 5.15L200.12 5.15L200.12 5.15Q200.38 5.17 200.80 5.17L200.80 5.17L200.80 5.17Q201.68 5.17 202.45 5.12L202.45 5.12L202.45 5.12Q203.22 5.07 203.85 5.01L203.85 5.01L203.85 5.01Q204.47 4.96 204.92 4.91L204.92 4.91L204.92 4.91Q205.37 4.86 205.60 4.86L205.60 4.86L205.60 4.86Q205.93 4.86 206.18 5.19L206.18 5.19L206.18 5.19Q206.43 5.53 206.56 6.15L206.56 6.15L206.56 6.15Q206.12 6.10 205.85 6.09L205.85 6.09L205.85 6.09Q205.58 6.08 205.37 6.08L205.37 6.08L205.37 6.08Q204.60 6.08 203.96 6.15L203.96 6.15L203.96 6.15Q203.32 6.23 202.73 6.31L202.73 6.31L202.73 6.31Q202.65 6.44 202.54 6.64L202.54 6.64L202.54 6.64Q202.44 6.83 202.27 7.18L202.27 7.18L202.27 7.18Q202.10 7.53 201.86 8.06L201.86 8.06L201.86 8.06Q201.61 8.60 201.26 9.39L201.26 9.39L201.26 9.39Q201.80 9.31 202.26 9.26L202.26 9.26L202.26 9.26Q202.73 9.21 203.06 9.21ZM222.32 7.46L222.32 7.46L222.32 7.46Q222.32 8.13 222.02 8.73L222.02 8.73L222.02 8.73Q221.72 9.32 221.19 9.79L221.19 9.79L221.19 9.79Q220.65 10.26 219.94 10.58L219.94 10.58L219.94 10.58Q219.23 10.91 218.39 11.02L218.39 11.02L218.39 11.02Q218.60 11.65 218.90 12.31L218.90 12.31L218.90 12.31Q219.20 12.98 219.55 13.59L219.55 13.59L219.55 13.59Q219.90 14.21 220.28 14.73L220.28 14.73L220.28 14.73Q220.65 15.25 221.02 15.58L221.02 15.58L221.02 15.58Q220.95 15.72 220.81 15.86L220.81 15.86L220.81 15.86Q220.68 16.00 220.51 16.12L220.51 16.12L220.51 16.12Q220.33 16.24 220.14 16.32L220.14 16.32L220.14 16.32Q219.95 16.39 219.79 16.39L219.79 16.39L219.79 16.39Q219.48 16.39 219.20 16.10L219.20 16.10L219.20 16.10Q218.92 15.81 218.63 15.17L218.63 15.17L218.63 15.17Q218.34 14.53 218.03 13.52L218.03 13.52L218.03 13.52Q217.71 12.50 217.34 11.07L217.34 11.07L217.34 11.07Q217.18 11.07 217.03 11.07L217.03 11.07L217.03 11.07Q216.87 11.07 216.79 11.05L216.79 11.05L216.79 11.05Q216.69 10.99 216.58 10.85L216.58 10.85L216.58 10.85Q216.20 11.66 215.91 12.38L215.91 12.38L215.91 12.38Q215.61 13.09 215.38 13.76L215.38 13.76L215.38 13.76Q215.15 14.42 214.98 15.04L214.98 15.04L214.98 15.04Q214.80 15.67 214.68 16.31L214.68 16.31L214.68 16.31Q214.20 16.20 213.85 15.90L213.85 15.90L213.85 15.90Q213.50 15.61 213.19 15.08L213.19 15.08L213.19 15.08Q213.25 14.95 213.31 14.83L213.31 14.83L213.31 14.83Q213.37 14.71 213.47 14.50L213.47 14.50L213.47 14.50Q213.57 14.28 213.72 13.94L213.72 13.94L213.72 13.94Q213.86 13.61 214.11 13.05L214.11 13.05L214.11 13.05Q214.35 12.49 214.70 11.68L214.70 11.68L214.70 11.68Q215.04 10.86 215.53 9.70L215.53 9.70L215.53 9.70Q215.75 9.18 215.91 8.79L215.91 8.79L215.91 8.79Q216.08 8.40 216.20 8.04L216.20 8.04L216.20 8.04Q216.33 7.69 216.43 7.33L216.43 7.33L216.43 7.33Q216.54 6.97 216.65 6.51L216.65 6.51L216.65 6.51Q216.01 6.73 215.45 7.01L215.45 7.01L215.45 7.01Q214.90 7.28 214.54 7.59L214.54 7.59L214.54 7.59Q214.41 7.50 214.28 7.34L214.28 7.34L214.28 7.34Q214.14 7.17 214.03 6.96L214.03 6.96L214.03 6.96Q213.92 6.76 213.84 6.55L213.84 6.55L213.84 6.55Q213.75 6.34 213.74 6.17L213.74 6.17L213.74 6.17Q214.16 5.89 214.77 5.66L214.77 5.66L214.77 5.66Q215.38 5.42 216.06 5.24L216.06 5.24L216.06 5.24Q216.75 5.07 217.46 4.97L217.46 4.97L217.46 4.97Q218.18 4.87 218.79 4.87L218.79 4.87L218.79 4.87Q220.47 4.87 221.40 5.56L221.40 5.56L221.40 5.56Q222.32 6.26 222.32 7.46ZM218.74 6.02L218.90 6.29L218.90 6.29Q218.81 6.41 218.60 6.79L218.60 6.79L218.60 6.79Q218.39 7.17 218.11 7.69L218.11 7.69L218.11 7.69Q217.84 8.22 217.54 8.83L217.54 8.83L217.54 8.83Q217.24 9.45 216.96 10.05L216.96 10.05L216.96 10.05Q218.01 10.05 218.89 9.86L218.89 9.86L218.89 9.86Q219.77 9.66 220.42 9.30L220.42 9.30L220.42 9.30Q221.06 8.95 221.42 8.46L221.42 8.46L221.42 8.46Q221.77 7.98 221.77 7.39L221.77 7.39L221.77 7.39Q221.77 6.69 221.27 6.32L221.27 6.32L221.27 6.32Q220.77 5.95 219.72 5.95L219.72 5.95L219.72 5.95Q219.48 5.95 219.24 5.97L219.24 5.97L219.24 5.97Q219.00 5.99 218.74 6.02L218.74 6.02ZM241.60 15.61L241.60 15.61L241.60 15.61Q241.53 15.04 241.49 14.36L241.49 14.36L241.49 14.36Q241.46 13.68 241.46 13.09L241.46 13.09L241.46 13.09Q241.46 12.15 241.52 11.29L241.52 11.29L241.52 11.29Q241.58 10.43 241.67 9.48L241.67 9.48L241.67 9.48Q241.77 8.54 241.88 7.43L241.88 7.43L241.88 7.43Q241.99 6.31 242.07 4.86L242.07 4.86L242.07 4.86Q242.26 4.86 242.60 4.96L242.60 4.96L242.60 4.96Q242.94 5.07 243.29 5.21L243.29 5.21L243.29 5.21Q243.64 5.35 243.91 5.49L243.91 5.49L243.91 5.49Q244.17 5.64 244.22 5.74L244.22 5.74L244.22 5.74Q243.98 6.29 243.79 7.18L243.79 7.18L243.79 7.18Q243.60 8.06 243.47 9.11L243.47 9.11L243.47 9.11Q243.35 10.16 243.28 11.27L243.28 11.27L243.28 11.27Q243.21 12.38 243.21 13.34L243.21 13.34L243.21 13.34Q243.21 13.79 243.22 14.22L243.22 14.22L243.22 14.22Q243.24 14.66 243.26 15.02L243.26 15.02L243.26 15.02Q243.56 14.59 243.94 13.78L243.94 13.78L243.94 13.78Q244.33 12.98 244.74 11.98L244.74 11.98L244.74 11.98Q245.15 10.99 245.57 9.91L245.57 9.91L245.57 9.91Q245.98 8.82 246.33 7.83L246.33 7.83L246.33 7.83Q246.68 6.85 246.92 6.05L246.92 6.05L246.92 6.05Q247.17 5.26 247.27 4.86L247.27 4.86L247.27 4.86Q247.45 4.86 247.81 4.96L247.81 4.96L247.81 4.96Q248.16 5.07 248.51 5.21L248.51 5.21L248.51 5.21Q248.85 5.35 249.12 5.49L249.12 5.49L249.12 5.49Q249.38 5.64 249.41 5.74L249.41 5.74L249.41 5.74Q249.17 6.29 248.98 7.18L248.98 7.18L248.98 7.18Q248.79 8.06 248.67 9.11L248.67 9.11L248.67 9.11Q248.54 10.16 248.47 11.27L248.47 11.27L248.47 11.27Q248.40 12.38 248.40 13.34L248.40 13.34L248.40 13.34Q248.40 13.75 248.41 14.15L248.41 14.15L248.41 14.15Q248.42 14.55 248.44 14.87L248.44 14.87L248.44 14.87Q248.89 13.71 249.38 12.56L249.38 12.56L249.38 12.56Q249.86 11.42 250.33 10.38L250.33 10.38L250.33 10.38Q250.81 9.34 251.26 8.43L251.26 8.43L251.26 8.43Q251.71 7.53 252.08 6.82L252.08 6.82L252.08 6.82Q252.46 6.12 252.74 5.66L252.74 5.66L252.74 5.66Q253.02 5.19 253.18 5.04L253.18 5.04L253.18 5.04Q253.50 5.08 253.84 5.27L253.84 5.27L253.84 5.27Q254.18 5.46 254.45 5.75L254.45 5.75L254.45 5.75Q254.04 6.08 253.53 6.81L253.53 6.81L253.53 6.81Q253.01 7.55 252.46 8.51L252.46 8.51L252.46 8.51Q251.92 9.48 251.36 10.57L251.36 10.57L251.36 10.57Q250.81 11.66 250.33 12.70L250.33 12.70L250.33 12.70Q249.86 13.73 249.49 14.63L249.49 14.63L249.49 14.63Q249.12 15.53 248.92 16.07L248.92 16.07L248.92 16.07Q248.56 16.24 248.21 16.24L248.21 16.24L248.21 16.24Q247.76 16.18 247.36 16.02L247.36 16.02L247.36 16.02Q246.96 15.85 246.79 15.61L246.79 15.61L246.79 15.61Q246.75 15.39 246.72 15.09L246.72 15.09L246.72 15.09Q246.69 14.78 246.68 14.49L246.68 14.49L246.68 14.49Q246.67 14.20 246.66 13.92L246.66 13.92L246.66 13.92Q246.65 13.65 246.65 13.45L246.65 13.45L246.65 13.45Q246.65 12.21 246.75 10.91L246.75 10.91L246.75 10.91Q246.85 9.62 246.99 8.13L246.99 8.13L246.99 8.13Q246.67 9.09 246.27 10.18L246.27 10.18L246.27 10.18Q245.88 11.27 245.45 12.34L245.45 12.34L245.45 12.34Q245.03 13.41 244.59 14.38L244.59 14.38L244.59 14.38Q244.15 15.36 243.73 16.07L243.73 16.07L243.73 16.07Q243.36 16.24 243.01 16.24L243.01 16.24L243.01 16.24Q242.56 16.18 242.16 16.02L242.16 16.02L242.16 16.02Q241.77 15.85 241.60 15.61ZM265.93 9.21L265.93 9.21L265.93 9.21Q266.39 9.21 266.65 9.46L266.65 9.46L266.65 9.46Q266.91 9.72 266.91 10.16L266.91 10.16L266.91 10.16Q266.91 10.28 266.89 10.39L266.89 10.39L266.89 10.39Q266.87 10.51 266.84 10.60L266.84 10.60L266.84 10.60Q266.66 10.57 266.43 10.55L266.43 10.55L266.43 10.55Q266.21 10.53 265.90 10.53L265.90 10.53L265.90 10.53Q265.30 10.53 264.68 10.63L264.68 10.63L264.68 10.63Q264.07 10.74 263.51 10.81L263.51 10.81L263.51 10.81Q263.19 11.55 262.92 12.24L262.92 12.24L262.92 12.24Q262.65 12.94 262.47 13.51L262.47 13.51L262.47 13.51Q262.28 14.08 262.17 14.50L262.17 14.50L262.17 14.50Q262.07 14.92 262.05 15.13L262.05 15.13L262.05 15.13Q263.19 14.90 264.34 14.73L264.34 14.73L264.34 14.73Q265.50 14.56 266.77 14.48L266.77 14.48L266.77 14.48Q266.92 14.71 267.03 14.99L267.03 14.99L267.03 14.99Q267.13 15.27 267.13 15.60L267.13 15.60L267.13 15.60Q267.13 15.68 267.13 15.78L267.13 15.78L267.13 15.78Q267.13 15.88 267.11 15.97L267.11 15.97L267.11 15.97Q266.71 15.96 266.28 15.95L266.28 15.95L266.28 15.95Q265.85 15.95 265.15 15.95L265.15 15.95L265.15 15.95Q264.68 15.95 264.27 15.97L264.27 15.97L264.27 15.97Q263.86 15.99 263.44 16.03L263.44 16.03L263.44 16.03Q263.02 16.07 262.55 16.14L262.55 16.14L262.55 16.14Q262.08 16.21 261.49 16.31L261.49 16.31L261.49 16.31Q260.85 16.06 260.25 15.08L260.25 15.08L260.25 15.08Q260.48 14.57 260.91 13.54L260.91 13.54L260.91 13.54Q261.34 12.52 262.00 10.79L262.00 10.79L262.00 10.79Q261.37 10.60 261.17 10.09L261.17 10.09L261.17 10.09Q261.24 10.02 261.58 9.92L261.58 9.92L261.58 9.92Q261.91 9.81 262.40 9.70L262.40 9.70L262.40 9.70Q262.61 9.16 262.76 8.75L262.76 8.75L262.76 8.75Q262.91 8.34 263.02 7.99L263.02 7.99L263.02 7.99Q263.13 7.63 263.22 7.29L263.22 7.29L263.22 7.29Q263.31 6.94 263.40 6.54L263.40 6.54L263.40 6.54Q262.91 6.51 262.63 6.27L262.63 6.27L262.63 6.27Q262.35 6.02 262.35 5.63L262.35 5.63L262.35 5.63Q262.35 5.52 262.38 5.36L262.38 5.36L262.38 5.36Q262.42 5.21 262.46 5.10L262.46 5.10L262.46 5.10Q262.74 5.14 263.00 5.15L263.00 5.15L263.00 5.15Q263.26 5.17 263.68 5.17L263.68 5.17L263.68 5.17Q264.56 5.17 265.33 5.12L265.33 5.12L265.33 5.12Q266.10 5.07 266.72 5.01L266.72 5.01L266.72 5.01Q267.34 4.96 267.79 4.91L267.79 4.91L267.79 4.91Q268.24 4.86 268.48 4.86L268.48 4.86L268.48 4.86Q268.80 4.86 269.05 5.19L269.05 5.19L269.05 5.19Q269.30 5.53 269.43 6.15L269.43 6.15L269.43 6.15Q269.00 6.10 268.72 6.09L268.72 6.09L268.72 6.09Q268.45 6.08 268.24 6.08L268.24 6.08L268.24 6.08Q267.47 6.08 266.83 6.15L266.83 6.15L266.83 6.15Q266.20 6.23 265.61 6.31L265.61 6.31L265.61 6.31Q265.52 6.44 265.42 6.64L265.42 6.64L265.42 6.64Q265.31 6.83 265.15 7.18L265.15 7.18L265.15 7.18Q264.98 7.53 264.73 8.06L264.73 8.06L264.73 8.06Q264.49 8.60 264.14 9.39L264.14 9.39L264.14 9.39Q264.67 9.31 265.14 9.26L265.14 9.26L265.14 9.26Q265.61 9.21 265.93 9.21ZM285.32 7.46L285.32 7.46L285.32 7.46Q285.32 8.33 284.84 9.01L284.84 9.01L284.84 9.01Q284.37 9.69 283.54 10.14L283.54 10.14L283.54 10.14Q284.07 10.50 284.39 11.03L284.39 11.03L284.39 11.03Q284.70 11.55 284.70 12.18L284.70 12.18L284.70 12.18Q284.70 12.94 284.25 13.67L284.25 13.67L284.25 13.67Q283.79 14.41 283.04 14.97L283.04 14.97L283.04 14.97Q282.28 15.54 281.32 15.89L281.32 15.89L281.32 15.89Q280.35 16.24 279.34 16.24L279.34 16.24L279.34 16.24Q278.25 16.24 277.43 15.83L277.43 15.83L277.43 15.83Q276.61 15.41 276.15 14.66L276.15 14.66L276.15 14.66Q276.29 14.24 276.52 13.62L276.52 13.62L276.52 13.62Q276.75 12.99 277.03 12.30L277.03 12.30L277.03 12.30Q277.31 11.61 277.60 10.92L277.60 10.92L277.60 10.92Q277.89 10.23 278.14 9.69L278.14 9.69L278.14 9.69Q278.67 8.50 279.09 7.71L279.09 7.71L279.09 7.71Q279.51 6.93 279.86 6.47L279.86 6.47L279.86 6.47Q279.09 6.71 278.46 7.01L278.46 7.01L278.46 7.01Q277.83 7.31 277.54 7.59L277.54 7.59L277.54 7.59Q277.41 7.50 277.28 7.34L277.28 7.34L277.28 7.34Q277.14 7.17 277.03 6.96L277.03 6.96L277.03 6.96Q276.91 6.76 276.83 6.55L276.83 6.55L276.83 6.55Q276.75 6.34 276.74 6.17L276.74 6.17L276.74 6.17Q277.10 5.92 277.68 5.69L277.68 5.69L277.68 5.69Q278.26 5.46 278.95 5.29L278.95 5.29L278.95 5.29Q279.64 5.12 280.36 5.03L280.36 5.03L280.36 5.03Q281.08 4.93 281.74 4.93L281.74 4.93L281.74 4.93Q283.42 4.93 284.37 5.60L284.37 5.60L284.37 5.60Q285.32 6.27 285.32 7.46ZM279.99 10.81L279.99 10.81L279.99 10.81Q279.72 10.68 279.50 10.43L279.50 10.43L279.50 10.43Q279.17 11.14 278.89 11.83L278.89 11.83L278.89 11.83Q278.60 12.52 278.38 13.10L278.38 13.10L278.38 13.10Q278.15 13.69 278.01 14.13L278.01 14.13L278.01 14.13Q277.87 14.56 277.86 14.76L277.86 14.76L277.86 14.76Q278.05 14.87 278.33 14.92L278.33 14.92L278.33 14.92Q278.60 14.98 279.01 14.98L279.01 14.98L279.01 14.98Q279.96 14.98 280.83 14.71L280.83 14.71L280.83 14.71Q281.69 14.45 282.35 13.99L282.35 13.99L282.35 13.99Q283.01 13.54 283.40 12.95L283.40 12.95L283.40 12.95Q283.79 12.36 283.79 11.72L283.79 11.72L283.79 11.72Q283.79 10.79 283.00 10.39L283.00 10.39L283.00 10.39Q281.90 10.84 280.53 10.84L280.53 10.84L280.53 10.84Q280.34 10.84 280.23 10.84L280.23 10.84L280.23 10.84Q280.13 10.84 279.99 10.81ZM282.70 5.95L282.70 5.95L282.70 5.95Q282.41 5.95 282.08 5.98L282.08 5.98L282.08 5.98Q281.75 6.02 281.39 6.09L281.39 6.09L281.39 6.09Q281.44 6.15 281.48 6.21L281.48 6.21L281.48 6.21Q281.51 6.27 281.54 6.34L281.54 6.34L281.54 6.34Q281.41 6.51 281.23 6.83L281.23 6.83L281.23 6.83Q281.05 7.15 280.83 7.58L280.83 7.58L280.83 7.58Q280.60 8.01 280.36 8.53L280.36 8.53L280.36 8.53Q280.11 9.04 279.86 9.59L279.86 9.59L279.86 9.59Q280.10 9.53 280.44 9.50L280.44 9.50L280.44 9.50Q280.78 9.46 281.12 9.46L281.12 9.46L281.12 9.46Q281.30 9.46 281.48 9.48L281.48 9.48L281.48 9.48Q281.65 9.49 281.82 9.52L281.82 9.52L281.82 9.52Q282.49 9.41 283.03 9.19L283.03 9.19L283.03 9.19Q283.57 8.97 283.96 8.69L283.96 8.69L283.96 8.69Q284.35 8.40 284.56 8.05L284.56 8.05L284.56 8.05Q284.77 7.70 284.77 7.31L284.77 7.31L284.77 7.31Q284.77 6.64 284.24 6.29L284.24 6.29L284.24 6.29Q283.71 5.95 282.70 5.95Z"></path></g></svg>